<svg width="400" height="700" viewBox="0 0 400 700" xmlns="http://www.w3.org/2000/svg">
<defs>
<linearGradient id="sky" x1="0" y1="0" x2="0" y2="1">
<stop offset="0%" stop-color="#b8d4ff"/>
<stop offset="100%" stop-color="#e8f0ff"/>
</linearGradient>
</defs>
<rect width="400" height="700" fill="url(#sky)"/>
<rect x="0" y="520" width="60" height="180" fill="#556080"/>
<rect x="48" y="430" width="90" height="270" fill="#69789b"/>
<rect x="122" y="500" width="70" height="200" fill="#5f6d8a"/>
<rect x="180" y="390" width="85" height="310" fill="#7483a6"/>
<rect x="252" y="470" width="60" height="230" fill="#5d6987"/>
<rect x="300" y="420" width="100" height="280" fill="#6f7d9e"/>
<g opacity="0.5">
<rect x="20" y="560" width="8" height="10" fill="#ffe082"/>
<rect x="35" y="560" width="8" height="10" fill="#ffe082"/>
<rect x="72" y="470" width="8" height="10" fill="#ffe082"/>
<rect x="87" y="470" width="8" height="10" fill="#ffe082"/>
<rect x="215" y="430" width="8" height="10" fill="#ffe082"/>
<rect x="230" y="430" width="8" height="10" fill="#ffe082"/>
<rect x="330" y="460" width="8" height="10" fill="#ffe082"/>
<rect x="345" y="460" width="8" height="10" fill="#ffe082"/>
</g>
</svg>